<svg xmlns="http://www.w3.org/2000/svg" viewBox="0 0 68 68" id="food">
  <path fill="#d9defb" d="M66.014 42.808a4.816 4.816 0 0 1-4.816 4.816H6.804a4.816 4.816 0 0 1 0-9.632h54.394a4.816 4.816 0 0 1 4.816 4.816z"></path>
  <path fill="#fbdc43" d="M63.639 47.624v4.038c0 5.836-4.732 10.568-10.569 10.568H14.932c-5.837 0-10.569-4.731-10.569-10.568v-4.038H63.64z"></path>
  <path fill="#c5cced" d="M22.758 47.624H4.153a.263.263 0 0 1-.152-.06c-2.676-2.469-2.401-6.797-.818-8.38a4.058 4.058 0 0 1 2.882-1.194h16.693a4.058 4.058 0 0 0-2.883 1.194 4.058 4.058 0 0 0-1.194 2.883c0 2.25 1.826 5.557 4.077 5.557z"></path>
  <path fill="#fd4f5a" d="M1.988 36.256a3.944 3.944 0 0 1 3.944-3.944H62.07a3.944 3.944 0 0 1 3.944 3.944c0 .925-.567 1.768-1.438 2.077-2.637.935-3.11 4.352-6.562 4.352-4 0-4-4.442-8-4.442s-4 4.442-8 4.442c-4.002 0-4.002-4.442-8.003-4.442-3.998 0-3.998 4.442-7.997 4.442-4.003 0-4.003-4.442-8.005-4.442-4.005 0-4.005 4.442-8.01 4.442-3.458 0-3.93-3.418-6.572-4.352-.871-.309-1.439-1.153-1.439-2.077z"></path>
  <path fill="#ef3c4e" d="M26.143 42.689h-.128c-4.008 0-4.008-4.442-8.005-4.442-4.008 0-4.008 4.442-8.016 4.442-3.455 0-3.929-3.426-6.564-4.354a2.198 2.198 0 0 1-1.442-2.083 3.945 3.945 0 0 1 3.949-3.938h16.258a3.937 3.937 0 0 0-3.939 3.938c0 .928.563 1.767 1.432 2.083 2.616.918 3.11 4.275 6.456 4.354z"></path>
  <path fill="#fbdc43" d="M60.655 32.312c3.176 0 5.516-2.969 4.79-6.06C62.31 12.92 49.422 5.774 34 5.774c-15.43 0-28.312 7.146-31.444 20.478-.726 3.091 1.614 6.06 4.79 6.06h53.308z"></path>
  <path fill="#eac839" d="M31.198 62.234H14.93c-5.834 0-10.563-4.738-10.563-10.572v-4.038h16.258v4.038c0 5.834 4.739 10.572 10.573 10.572zm-12.38-35.981c-.72 3.09 1.62 6.06 4.788 6.06H7.349c-3.178 0-5.518-2.97-4.787-6.06C5.69 12.917 18.572 5.77 34 5.77c2.813 0 5.538.237 8.134.71-11.668 2.093-20.75 8.865-23.316 19.773z"></path>
  <path fill="#f93" d="m39.303 47.624 8.21 8.21a2.84 2.84 0 0 0 4.017 0l8.21-8.21H39.304z"></path>
  <path fill="#ef8626" d="m52.194 55.176-.661.661a2.848 2.848 0 0 1-4.018 0l-8.213-8.213h5.35l7.542 7.552z"></path>
  <path fill="#060606" d="M67 36.256c0-1.866-1.056-3.475-2.586-4.314.316-.257.612-.553.868-.879a5.924 5.924 0 0 0 1.126-5.034C63.328 12.929 50.91 4.786 34 4.786c-16.91 0-29.328 8.144-32.408 21.243-.53 2.259.321 4.553 1.994 5.913C2.056 32.78 1 34.39 1 36.256c0 1.115.582 2.132 1.49 2.704A5.76 5.76 0 0 0 1 42.81c0 1.925.948 3.633 2.399 4.69 0 .039-.02.078-.02.127v4.038c0 6.367 5.183 11.55 11.55 11.55H53.07c6.367 0 11.56-5.183 11.56-11.55v-4.038c0-.049-.02-.089-.03-.128A5.795 5.795 0 0 0 67 42.81c0-1.48-.563-2.823-1.48-3.85A3.218 3.218 0 0 0 67 36.256zM3.517 26.483C6.37 14.312 18.057 6.76 34 6.76c15.942 0 27.63 7.552 30.483 19.713a3.935 3.935 0 0 1-.75 3.366 3.926 3.926 0 0 1-3.08 1.49H7.347c-2.53 0-4.41-2.379-3.83-4.846zm59.14 25.182c0 5.281-4.304 9.575-9.585 9.575H14.928c-5.28 0-9.575-4.294-9.575-9.575v-3.05h33.543l7.917 7.916a3.818 3.818 0 0 0 2.705 1.126 3.84 3.84 0 0 0 2.714-1.126l7.917-7.916h2.508v3.05zm-20.967-3.05h15.666L50.83 55.14c-.701.7-1.915.7-2.616 0l-6.525-6.525zm19.516-1.975H6.794c-2.102-.01-3.82-1.727-3.82-3.83 0-1.125.504-2.132 1.283-2.823.336.306.652.661.997 1.056 1.017 1.175 2.29 2.626 4.749 2.626 2.438 0 3.711-1.412 4.738-2.547.948-1.056 1.708-1.895 3.267-1.895 1.56 0 2.32.839 3.268 1.895 1.026 1.135 2.3 2.547 4.738 2.547s3.711-1.412 4.728-2.547c.958-1.056 1.708-1.895 3.268-1.895 1.56 0 2.32.839 3.267 1.895 1.027 1.135 2.3 2.547 4.738 2.547 2.439 0 3.712-1.412 4.729-2.547.957-1.056 1.708-1.895 3.267-1.895s2.32.839 3.268 1.895c1.026 1.135 2.3 2.547 4.738 2.547 2.448 0 3.721-1.451 4.738-2.626.345-.395.661-.76 1.007-1.066.77.7 1.264 1.708 1.264 2.833a3.838 3.838 0 0 1-3.82 3.83zm3.04-9.24c-1.353.484-2.211 1.472-2.981 2.34-.948 1.096-1.698 1.955-3.248 1.955-1.56 0-2.32-.83-3.267-1.896-1.027-1.135-2.3-2.546-4.739-2.546-2.438 0-3.711 1.411-4.728 2.546-.958 1.067-1.708 1.896-3.267 1.896-1.56 0-2.32-.83-3.268-1.896-1.027-1.135-2.3-2.546-4.738-2.546-2.438 0-3.712 1.411-4.729 2.546-.957 1.067-1.707 1.896-3.267 1.896s-2.32-.83-3.267-1.896c-1.027-1.135-2.3-2.546-4.739-2.546-2.438 0-3.711 1.411-4.738 2.546-.957 1.067-1.708 1.896-3.267 1.896-1.56 0-2.31-.86-3.268-1.955-.76-.869-1.619-1.856-2.98-2.34a1.206 1.206 0 0 1-.78-1.144 2.955 2.955 0 0 1 2.96-2.952h56.14a2.953 2.953 0 0 1 2.95 2.952c0 .523-.315.977-.78 1.145z"></path>
  <path fill="#060606" d="M17.171 19.084a.987.987 0 0 0 1.836-.726l-.614-1.55a.988.988 0 0 0-1.836.726l.614 1.55zm7.036-5.862 1.592-1.881a.989.989 0 0 0-.116-1.392.99.99 0 0 0-1.392.115L22.7 11.946a.989.989 0 0 0 .116 1.392.99.99 0 0 0 1.392-.116zm12.222 3.692a.99.99 0 0 0 1.392-.115l1.593-1.882a.989.989 0 0 0-.116-1.392.99.99 0 0 0-1.392.116l-1.593 1.881a.989.989 0 0 0 .116 1.392zm-7.861 2.243a.986.986 0 1 0 1.216-1.554l-.935-.732a.986.986 0 1 0-1.217 1.554l.936.732zm15.96-7.38a.989.989 0 0 0 1.218-1.555l-.935-.732a.988.988 0 0 0-1.218 1.554l.935.732zm1.001 5.503a.988.988 0 0 0-1.907.515l.408 1.511a.988.988 0 0 0 1.907-.515l-.408-1.511zm4.647-.088c.493.038 1.002-.373 1.023-.95l.053-1.413a.986.986 0 0 0-.95-1.023c-.55-.063-1.003.405-1.023.95l-.053 1.413a.986.986 0 0 0 .95 1.023zm-14.173-5.384.763-1.082a.988.988 0 0 0-1.613-1.139l-.764 1.082a.988.988 0 0 0 1.614 1.14z"></path>
</svg>
